<svg width="3000" height="4885" viewBox="0 0 3000 4885" fill="none" xmlns="http://www.w3.org/2000/svg">
<path d="M3.618 4607.16H11.256V4655H3.618V4607.16ZM19.0735 4607.16H28.3865L42.2555 4642.81H42.3895V4607.16H49.6255V4655H40.3125L26.4435 4618.42H26.3095V4655H19.0735V4607.16ZM54.2632 4607.16H84.4802V4613.59H73.2912V4655H65.6532V4613.59H54.2632V4607.16ZM89.0959 4607.16H105.913C109.844 4607.16 112.859 4608.23 114.958 4610.38C117.057 4612.52 118.107 4615.56 118.107 4619.49C118.107 4622.48 117.459 4625.07 116.164 4627.26C114.869 4629.45 112.859 4630.77 110.134 4631.21V4631.35C112.903 4631.62 114.824 4632.62 115.896 4634.36C116.968 4636.06 117.549 4638.45 117.638 4641.53L117.772 4647.83C117.817 4650.02 117.973 4651.58 118.241 4652.52C118.509 4653.41 119.157 4654.24 120.184 4655H111.541C110.648 4653.79 110.156 4651.02 110.067 4646.69L110 4642.87C109.955 4639.84 109.442 4637.65 108.459 4636.31C107.521 4634.92 105.712 4634.23 103.032 4634.23H96.7339V4655H89.0959V4607.16ZM96.7339 4628.47H103.032C104.149 4628.47 105.221 4628.29 106.248 4627.93C107.275 4627.57 108.236 4626.77 109.129 4625.52C110.022 4624.27 110.469 4622.64 110.469 4620.63C110.469 4615.49 108.079 4612.92 103.3 4612.92H96.7339V4628.47ZM128.03 4612.19C130.576 4608.21 134.574 4606.22 140.023 4606.22C145.473 4606.22 149.47 4608.21 152.016 4612.19C154.562 4616.16 155.835 4622.46 155.835 4631.08C155.835 4639.7 154.562 4646 152.016 4649.97C149.47 4653.95 145.473 4655.94 140.023 4655.94C134.574 4655.94 130.576 4653.95 128.03 4649.97C125.484 4646 124.211 4639.7 124.211 4631.08C124.211 4622.46 125.484 4616.16 128.03 4612.19ZM131.849 4630.88C131.849 4638.12 132.519 4643.14 133.859 4645.95C135.199 4648.77 137.254 4650.18 140.023 4650.18C141.81 4650.18 143.262 4649.68 144.378 4648.7C145.495 4647.72 146.411 4645.78 147.125 4642.87C147.84 4639.92 148.197 4635.93 148.197 4630.88C148.197 4627.04 147.996 4623.84 147.594 4621.3C147.237 4618.75 146.656 4616.83 145.852 4615.54C145.093 4614.2 144.244 4613.28 143.306 4612.79C142.368 4612.25 141.252 4611.99 139.956 4611.99C137.232 4611.99 135.199 4613.37 133.859 4616.14C132.519 4618.91 131.849 4623.82 131.849 4630.88ZM162.848 4655V4607.16H176.516C179.464 4607.16 181.965 4607.59 184.02 4608.43C186.119 4609.24 187.749 4610.29 188.911 4611.58C190.117 4612.83 191.055 4614.55 191.725 4616.74C192.395 4618.93 192.819 4621.1 192.998 4623.24C193.221 4625.39 193.333 4628 193.333 4631.08C193.333 4634.16 193.221 4636.78 192.998 4638.92C192.819 4641.02 192.395 4643.16 191.725 4645.35C191.099 4647.54 190.184 4649.28 188.978 4650.58C187.816 4651.87 186.186 4652.95 184.087 4653.79C182.032 4654.6 179.531 4655 176.583 4655H162.848ZM170.486 4612.92V4649.24H176.851C180.156 4649.24 182.456 4647.88 183.752 4645.15C185.047 4642.43 185.695 4637.74 185.695 4631.08C185.695 4624.56 185.069 4619.91 183.819 4617.15C182.568 4614.33 180.245 4612.92 176.851 4612.92H170.486ZM199.742 4607.16H207.38V4641.47C207.38 4647.27 209.725 4650.18 214.415 4650.18C219.061 4650.18 221.383 4647.27 221.383 4641.47V4607.16H229.021V4640.93C229.021 4646.02 227.815 4649.8 225.403 4652.25C223.036 4654.71 219.373 4655.94 214.415 4655.94C209.368 4655.94 205.661 4654.69 203.293 4652.19C200.926 4649.68 199.742 4645.91 199.742 4640.86V4607.16ZM251.34 4606.22C260.943 4606.22 265.745 4611.16 265.745 4621.03V4622.1H258.107V4621.43C258.107 4615.13 255.851 4611.99 251.34 4611.99C248.258 4611.99 246.114 4613.3 244.908 4615.94C243.702 4618.57 243.099 4623.55 243.099 4630.88C243.099 4635.97 243.389 4639.95 243.97 4642.81C244.595 4645.62 245.466 4647.56 246.583 4648.63C247.699 4649.66 249.263 4650.18 251.273 4650.18C256.007 4650.18 258.375 4646.4 258.375 4638.85V4637.85H266.013V4638.58C266.013 4644.21 264.74 4648.52 262.194 4651.52C259.648 4654.46 256.007 4655.94 251.273 4655.94C245.555 4655.94 241.491 4654.06 239.079 4650.31C236.667 4646.51 235.461 4640.1 235.461 4631.08C235.461 4622.1 236.644 4615.72 239.012 4611.92C241.424 4608.12 245.533 4606.22 251.34 4606.22ZM271.276 4607.16H278.914V4655H271.276V4607.16ZM286.731 4607.16H296.044L309.913 4642.81H310.047V4607.16H317.283V4655H307.97L294.101 4618.42H293.967V4655H286.731V4607.16ZM340.212 4606.22C345.036 4606.22 348.565 4607.61 350.798 4610.38C353.076 4613.1 354.215 4616.43 354.215 4620.36V4620.9H346.979V4620.03C346.979 4619.31 346.912 4618.62 346.778 4617.95C346.689 4617.28 346.443 4616.43 346.041 4615.4C345.684 4614.38 345.014 4613.55 344.031 4612.92C343.048 4612.3 341.798 4611.99 340.279 4611.99C337.286 4611.99 335.142 4613.37 333.847 4616.14C332.596 4618.91 331.971 4623.84 331.971 4630.95C331.971 4638.27 332.574 4643.32 333.78 4646.09C334.986 4648.81 336.951 4650.18 339.676 4650.18C342.579 4650.18 344.634 4649.06 345.84 4646.83C347.046 4644.59 347.649 4640.93 347.649 4635.84V4635.57H339.609V4629.81H354.885V4655H349.123V4649.44H348.989C347.872 4651.85 346.488 4653.55 344.835 4654.53C343.227 4655.47 341.128 4655.94 338.537 4655.94C333.49 4655.94 329.849 4654.02 327.616 4650.18C325.427 4646.33 324.333 4639.99 324.333 4631.15C324.333 4622.48 325.606 4616.16 328.152 4612.19C330.698 4608.21 334.718 4606.22 340.212 4606.22ZM372.053 4607.16H402.27V4613.59H391.081V4655H383.443V4613.59H372.053V4607.16ZM406.885 4607.16H414.523V4626.32H428.593V4607.16H436.231V4655H428.593V4632.76H414.523V4655H406.885V4607.16ZM444.383 4607.16H470.245V4613.59H452.021V4626.86H469.173V4633.29H452.021V4648.57H470.781V4655H444.383V4607.16ZM507.14 4606.22C516.118 4606.22 520.607 4610.36 520.607 4618.62V4619.89H512.969V4619.09C512.969 4616.99 512.5 4615.29 511.562 4614C510.669 4612.66 508.905 4611.99 506.269 4611.99C504.304 4611.99 502.741 4612.59 501.579 4613.79C500.418 4614.96 499.837 4616.65 499.837 4618.89C499.837 4620.9 500.373 4622.53 501.445 4623.78C502.562 4624.98 504.416 4626.06 507.006 4626.99L512.165 4628.87C515.337 4630.03 517.749 4631.53 519.401 4633.36C521.054 4635.19 521.88 4637.91 521.88 4641.53C521.88 4646.27 520.54 4649.86 517.86 4652.32C515.18 4654.73 511.25 4655.94 506.068 4655.94C501.289 4655.94 497.671 4654.69 495.214 4652.19C492.758 4649.68 491.529 4646 491.529 4641.13V4640.19H499.167V4641.26C499.167 4647.21 501.78 4650.18 507.006 4650.18C509.24 4650.18 511.004 4649.51 512.299 4648.17C513.595 4646.78 514.242 4645.13 514.242 4643.21C514.242 4640.84 513.706 4639.05 512.634 4637.85C511.607 4636.6 509.954 4635.57 507.676 4634.77L502.45 4632.96C499.056 4631.8 496.487 4630.19 494.745 4628.13C493.048 4626.08 492.199 4623.29 492.199 4619.76C492.199 4615.56 493.517 4612.25 496.152 4609.84C498.832 4607.43 502.495 4606.22 507.14 4606.22ZM528.282 4607.16H543.558C547.444 4607.16 550.593 4608.3 553.005 4610.58C555.417 4612.86 556.623 4616.36 556.623 4621.1C556.623 4625.65 555.328 4629.16 552.737 4631.62C550.147 4634.03 546.797 4635.23 542.687 4635.23H535.92V4655H528.282V4607.16ZM535.92 4629.47H541.347C543.715 4629.47 545.568 4628.78 546.908 4627.4C548.293 4626.01 548.985 4623.96 548.985 4621.23C548.985 4618.06 548.226 4615.89 546.707 4614.73C545.233 4613.53 543.268 4612.92 540.811 4612.92H535.92V4629.47ZM562.05 4607.16H578.867C582.798 4607.16 585.813 4608.23 587.912 4610.38C590.012 4612.52 591.061 4615.56 591.061 4619.49C591.061 4622.48 590.414 4625.07 589.118 4627.26C587.823 4629.45 585.813 4630.77 583.088 4631.21V4631.35C585.858 4631.62 587.778 4632.62 588.85 4634.36C589.922 4636.06 590.503 4638.45 590.592 4641.53L590.726 4647.83C590.771 4650.02 590.927 4651.58 591.195 4652.52C591.463 4653.41 592.111 4654.24 593.138 4655H584.495C583.602 4653.79 583.111 4651.02 583.021 4646.69L582.954 4642.87C582.91 4639.84 582.396 4637.65 581.413 4636.31C580.475 4634.92 578.666 4634.23 575.986 4634.23H569.688V4655H562.05V4607.16ZM569.688 4628.47H575.986C577.103 4628.47 578.175 4628.29 579.202 4627.93C580.23 4627.57 581.19 4626.77 582.083 4625.52C582.977 4624.27 583.423 4622.64 583.423 4620.63C583.423 4615.49 581.034 4612.92 576.254 4612.92H569.688V4628.47ZM597.97 4607.16H605.608V4655H597.97V4607.16ZM613.425 4607.16H622.738L636.607 4642.81H636.741V4607.16H643.977V4655H634.664L620.795 4618.42H620.661V4655H613.425V4607.16ZM666.906 4606.22C671.73 4606.22 675.259 4607.61 677.492 4610.38C679.77 4613.1 680.909 4616.43 680.909 4620.36V4620.9H673.673V4620.03C673.673 4619.31 673.606 4618.62 673.472 4617.95C673.383 4617.28 673.137 4616.43 672.735 4615.4C672.378 4614.38 671.708 4613.55 670.725 4612.92C669.742 4612.3 668.492 4611.99 666.973 4611.99C663.98 4611.99 661.836 4613.37 660.541 4616.14C659.29 4618.91 658.665 4623.84 658.665 4630.95C658.665 4638.27 659.268 4643.32 660.474 4646.09C661.68 4648.81 663.645 4650.18 666.37 4650.18C669.273 4650.18 671.328 4649.06 672.534 4646.83C673.74 4644.59 674.343 4640.93 674.343 4635.84V4635.57H666.303V4629.81H681.579V4655H675.817V4649.44H675.683C674.566 4651.85 673.182 4653.55 671.529 4654.53C669.921 4655.47 667.822 4655.94 665.231 4655.94C660.184 4655.94 656.543 4654.02 654.31 4650.18C652.121 4646.33 651.027 4639.99 651.027 4631.15C651.027 4622.48 652.3 4616.16 654.846 4612.19C657.392 4608.21 661.412 4606.22 666.906 4606.22ZM699.006 4606.22H704.969L689.76 4655.94H683.797L699.006 4606.22ZM722.382 4606.22C731.36 4606.22 735.849 4610.36 735.849 4618.62V4619.89H728.211V4619.09C728.211 4616.99 727.742 4615.29 726.804 4614C725.911 4612.66 724.147 4611.99 721.511 4611.99C719.546 4611.99 717.983 4612.59 716.821 4613.79C715.66 4614.96 715.079 4616.65 715.079 4618.89C715.079 4620.9 715.615 4622.53 716.687 4623.78C717.804 4624.98 719.658 4626.06 722.248 4626.99L727.407 4628.87C730.579 4630.03 732.991 4631.53 734.643 4633.36C736.296 4635.19 737.122 4637.91 737.122 4641.53C737.122 4646.27 735.782 4649.86 733.102 4652.32C730.422 4654.73 726.492 4655.94 721.31 4655.94C716.531 4655.94 712.913 4654.69 710.456 4652.19C708 4649.68 706.771 4646 706.771 4641.13V4640.19H714.409V4641.26C714.409 4647.21 717.022 4650.18 722.248 4650.18C724.482 4650.18 726.246 4649.51 727.541 4648.17C728.837 4646.78 729.484 4645.13 729.484 4643.21C729.484 4640.84 728.948 4639.05 727.876 4637.85C726.849 4636.6 725.196 4635.57 722.918 4634.77L717.692 4632.96C714.298 4631.8 711.729 4630.19 709.987 4628.13C708.29 4626.08 707.441 4623.29 707.441 4619.76C707.441 4615.56 708.759 4612.25 711.394 4609.84C714.074 4607.43 717.737 4606.22 722.382 4606.22ZM742.922 4607.16H750.56V4641.47C750.56 4647.27 752.905 4650.18 757.595 4650.18C762.24 4650.18 764.563 4647.27 764.563 4641.47V4607.16H772.201V4640.93C772.201 4646.02 770.995 4649.8 768.583 4652.25C766.215 4654.71 762.553 4655.94 757.595 4655.94C752.547 4655.94 748.84 4654.69 746.473 4652.19C744.105 4649.68 742.922 4645.91 742.922 4640.86V4607.16ZM779.779 4607.16H791.705L800.147 4642.6H800.281L808.589 4607.16H820.247V4655H813.011V4615.2H812.877L803.229 4655H796.797L787.149 4615.2H787.015V4655H779.779V4607.16ZM828.4 4607.16H840.326L848.768 4642.6H848.902L857.21 4607.16H868.868V4655H861.632V4615.2H861.498L851.85 4655H845.418L835.77 4615.2H835.636V4655H828.4V4607.16ZM877.02 4607.16H902.882V4613.59H884.658V4626.86H901.81V4633.29H884.658V4648.57H903.418V4655H877.02V4607.16ZM909.545 4607.16H926.362C930.293 4607.16 933.308 4608.23 935.407 4610.38C937.506 4612.52 938.556 4615.56 938.556 4619.49C938.556 4622.48 937.908 4625.07 936.613 4627.26C935.318 4629.45 933.308 4630.77 930.583 4631.21V4631.35C933.352 4631.62 935.273 4632.62 936.345 4634.36C937.417 4636.06 937.998 4638.45 938.087 4641.53L938.221 4647.83C938.266 4650.02 938.422 4651.58 938.69 4652.52C938.958 4653.41 939.606 4654.24 940.633 4655H931.99C931.097 4653.79 930.605 4651.02 930.516 4646.69L930.449 4642.87C930.404 4639.84 929.891 4637.65 928.908 4636.31C927.97 4634.92 926.161 4634.23 923.481 4634.23H917.183V4655H909.545V4607.16ZM917.183 4628.47H923.481C924.598 4628.47 925.67 4628.29 926.697 4627.93C927.724 4627.57 928.685 4626.77 929.578 4625.52C930.471 4624.27 930.918 4622.64 930.918 4620.63C930.918 4615.49 928.528 4612.92 923.749 4612.92H917.183V4628.47ZM974.558 4607.56C978.712 4607.56 981.973 4608.64 984.34 4610.78C986.752 4612.92 987.958 4616.07 987.958 4620.23C987.958 4622.73 987.556 4625.01 986.752 4627.06C985.993 4629.07 985.01 4630.75 983.804 4632.09C982.598 4633.38 981.236 4634.7 979.717 4636.04C978.198 4637.33 976.747 4638.52 975.362 4639.59C974.022 4640.66 972.749 4641.98 971.543 4643.54C970.337 4645.11 969.466 4646.78 968.93 4648.57H988.159V4655H960.421C960.421 4652.19 960.778 4649.64 961.493 4647.36C962.252 4645.04 963.213 4643.12 964.374 4641.6C965.535 4640.04 966.808 4638.58 968.193 4637.24C969.622 4635.9 971.052 4634.65 972.481 4633.49C973.91 4632.29 975.206 4631.08 976.367 4629.87C977.528 4628.67 978.466 4627.24 979.181 4625.59C979.94 4623.89 980.32 4622.06 980.32 4620.09C980.32 4617.99 979.829 4616.27 978.846 4614.93C977.908 4613.59 976.434 4612.92 974.424 4612.92C970.002 4612.92 967.791 4616.23 967.791 4622.84H960.555C960.555 4612.66 965.223 4607.56 974.558 4607.56ZM1006.75 4607.56C1011.84 4607.56 1015.48 4609.51 1017.67 4613.39C1019.86 4617.23 1020.95 4623.35 1020.95 4631.75C1020.95 4640.33 1019.84 4646.51 1017.6 4650.31C1015.37 4654.06 1011.75 4655.94 1006.75 4655.94C1001.75 4655.94 998.129 4654.06 995.895 4650.31C993.662 4646.51 992.545 4640.33 992.545 4631.75C992.545 4623.35 993.64 4617.23 995.828 4613.39C998.062 4609.51 1001.7 4607.56 1006.75 4607.56ZM1000.18 4631.75C1000.18 4638.81 1000.63 4643.72 1001.52 4646.49C1002.46 4649.22 1004.2 4650.58 1006.75 4650.58C1009.3 4650.58 1011.01 4649.17 1011.91 4646.36C1012.85 4643.54 1013.32 4638.67 1013.32 4631.75C1013.32 4624.6 1012.82 4619.69 1011.84 4617.01C1010.9 4614.29 1009.21 4612.92 1006.75 4612.92C1004.25 4612.92 1002.53 4614.29 1001.59 4617.01C1000.65 4619.69 1000.18 4624.6 1000.18 4631.75ZM1039.48 4607.56C1043.63 4607.56 1046.89 4608.64 1049.26 4610.78C1051.67 4612.92 1052.88 4616.07 1052.88 4620.23C1052.88 4622.73 1052.47 4625.01 1051.67 4627.06C1050.91 4629.07 1049.93 4630.75 1048.72 4632.09C1047.52 4633.38 1046.15 4634.7 1044.64 4636.04C1043.12 4637.33 1041.67 4638.52 1040.28 4639.59C1038.94 4640.66 1037.67 4641.98 1036.46 4643.54C1035.26 4645.11 1034.38 4646.78 1033.85 4648.57H1053.08V4655H1025.34C1025.34 4652.19 1025.7 4649.64 1026.41 4647.36C1027.17 4645.04 1028.13 4643.12 1029.29 4641.6C1030.45 4640.04 1031.73 4638.58 1033.11 4637.24C1034.54 4635.9 1035.97 4634.65 1037.4 4633.49C1038.83 4632.29 1040.12 4631.08 1041.29 4629.87C1042.45 4628.67 1043.39 4627.24 1044.1 4625.59C1044.86 4623.89 1045.24 4622.06 1045.24 4620.09C1045.24 4617.99 1044.75 4616.27 1043.76 4614.93C1042.83 4613.59 1041.35 4612.92 1039.34 4612.92C1034.92 4612.92 1032.71 4616.23 1032.71 4622.84H1025.47C1025.47 4612.66 1030.14 4607.56 1039.48 4607.56ZM1071.53 4607.56H1077.1V4655H1069.46V4620.56H1059.61V4615.6H1060.61C1064.37 4615.6 1067.09 4614.8 1068.79 4613.19C1070.53 4611.58 1071.44 4609.71 1071.53 4607.56ZM1123.1 4606.22C1132.71 4606.22 1137.51 4611.16 1137.51 4621.03V4622.1H1129.87V4621.43C1129.87 4615.13 1127.62 4611.99 1123.1 4611.99C1120.02 4611.99 1117.88 4613.3 1116.67 4615.94C1115.47 4618.57 1114.86 4623.55 1114.86 4630.88C1114.86 4635.97 1115.15 4639.95 1115.73 4642.81C1116.36 4645.62 1117.23 4647.56 1118.35 4648.63C1119.46 4649.66 1121.03 4650.18 1123.04 4650.18C1127.77 4650.18 1130.14 4646.4 1130.14 4638.85V4637.85H1137.78V4638.58C1137.78 4644.21 1136.5 4648.52 1133.96 4651.52C1131.41 4654.46 1127.77 4655.94 1123.04 4655.94C1117.32 4655.94 1113.26 4654.06 1110.84 4650.31C1108.43 4646.51 1107.23 4640.1 1107.23 4631.08C1107.23 4622.1 1108.41 4615.72 1110.78 4611.92C1113.19 4608.12 1117.3 4606.22 1123.1 4606.22ZM1146.06 4612.19C1148.6 4608.21 1152.6 4606.22 1158.05 4606.22C1163.5 4606.22 1167.5 4608.21 1170.04 4612.19C1172.59 4616.16 1173.86 4622.46 1173.86 4631.08C1173.86 4639.7 1172.59 4646 1170.04 4649.97C1167.5 4653.95 1163.5 4655.94 1158.05 4655.94C1152.6 4655.94 1148.6 4653.95 1146.06 4649.97C1143.51 4646 1142.24 4639.7 1142.24 4631.08C1142.24 4622.46 1143.51 4616.16 1146.06 4612.19ZM1149.87 4630.88C1149.87 4638.12 1150.54 4643.14 1151.88 4645.95C1153.22 4648.77 1155.28 4650.18 1158.05 4650.18C1159.84 4650.18 1161.29 4649.68 1162.4 4648.7C1163.52 4647.72 1164.44 4645.78 1165.15 4642.87C1165.87 4639.92 1166.22 4635.93 1166.22 4630.88C1166.22 4627.04 1166.02 4623.84 1165.62 4621.3C1165.26 4618.75 1164.68 4616.83 1163.88 4615.54C1163.12 4614.2 1162.27 4613.28 1161.33 4612.79C1160.39 4612.25 1159.28 4611.99 1157.98 4611.99C1155.26 4611.99 1153.22 4613.37 1151.88 4616.14C1150.54 4618.91 1149.87 4623.82 1149.87 4630.88ZM1180 4607.16H1187.64V4648.57H1206.13V4655H1180V4607.16ZM1210.04 4607.16H1217.68V4648.57H1236.17V4655H1210.04V4607.16ZM1240.95 4607.16H1266.81V4613.59H1248.59V4626.86H1265.74V4633.29H1248.59V4648.57H1267.35V4655H1240.95V4607.16ZM1288.21 4606.22C1297.82 4606.22 1302.62 4611.16 1302.62 4621.03V4622.1H1294.98V4621.43C1294.98 4615.13 1292.73 4611.99 1288.21 4611.99C1285.13 4611.99 1282.99 4613.3 1281.78 4615.94C1280.58 4618.57 1279.97 4623.55 1279.97 4630.88C1279.97 4635.97 1280.26 4639.95 1280.84 4642.81C1281.47 4645.62 1282.34 4647.56 1283.46 4648.63C1284.57 4649.66 1286.14 4650.18 1288.15 4650.18C1292.88 4650.18 1295.25 4646.4 1295.25 4638.85V4637.85H1302.89V4638.58C1302.89 4644.21 1301.61 4648.52 1299.07 4651.52C1296.52 4654.46 1292.88 4655.94 1288.15 4655.94C1282.43 4655.94 1278.37 4654.06 1275.95 4650.31C1273.54 4646.51 1272.34 4640.1 1272.34 4631.08C1272.34 4622.1 1273.52 4615.72 1275.89 4611.92C1278.3 4608.12 1282.41 4606.22 1288.21 4606.22ZM1304.93 4607.16H1335.15V4613.59H1323.96V4655H1316.32V4613.59H1304.93V4607.16ZM1339.43 4607.16H1347.07V4655H1339.43V4607.16ZM1357.57 4612.19C1360.11 4608.21 1364.11 4606.22 1369.56 4606.22C1375.01 4606.22 1379.01 4608.21 1381.55 4612.19C1384.1 4616.16 1385.37 4622.46 1385.37 4631.08C1385.37 4639.7 1384.1 4646 1381.55 4649.97C1379.01 4653.95 1375.01 4655.94 1369.56 4655.94C1364.11 4655.94 1360.11 4653.95 1357.57 4649.97C1355.02 4646 1353.75 4639.7 1353.75 4631.08C1353.75 4622.46 1355.02 4616.16 1357.57 4612.19ZM1361.39 4630.88C1361.39 4638.12 1362.06 4643.14 1363.4 4645.95C1364.74 4648.77 1366.79 4650.18 1369.56 4650.18C1371.35 4650.18 1372.8 4649.68 1373.92 4648.7C1375.03 4647.72 1375.95 4645.78 1376.66 4642.87C1377.38 4639.92 1377.74 4635.93 1377.74 4630.88C1377.74 4627.04 1377.53 4623.84 1377.13 4621.3C1376.77 4618.75 1376.19 4616.83 1375.39 4615.54C1374.63 4614.2 1373.78 4613.28 1372.84 4612.79C1371.91 4612.25 1370.79 4611.99 1369.49 4611.99C1366.77 4611.99 1364.74 4613.37 1363.4 4616.14C1362.06 4618.91 1361.39 4623.82 1361.39 4630.88ZM1392.39 4607.16H1401.7L1415.57 4642.81H1415.7V4607.16H1422.94V4655H1413.62L1399.76 4618.42H1399.62V4655H1392.39V4607.16Z" fill="black"/>
</svg>
